<svg width="40" height="40" viewBox="0 0 40 40" fill="none" xmlns="http://www.w3.org/2000/svg">
<rect width="40" height="40" rx="20" fill="#3BCE57"/>
<path d="M20.1668 10.0369C22.7862 10.038 25.2446 11.0572 27.0935 12.908C28.9421 14.7589 29.9597 17.2195 29.9588 19.8358C29.9568 25.2346 25.5632 29.6275 20.1668 29.6277H20.1619C18.5235 29.6272 16.9131 29.2165 15.4832 28.4363L15.4685 28.4276L15.4519 28.4324L10.3084 29.7811L11.6853 24.7557L11.6902 24.7381L11.6814 24.7234C10.8246 23.2389 10.3729 21.554 10.3738 19.8279C10.3762 14.429 14.7697 10.0369 20.1668 10.0369ZM20.1697 11.6131C15.638 11.6131 11.9529 15.2986 11.9509 19.8279C11.95 21.38 12.3845 22.8919 13.2068 24.2L13.3914 24.494L12.5701 27.493L12.5515 27.5623L12.6209 27.5438L15.697 26.7361L15.9812 26.9051C17.2428 27.6534 18.689 28.0501 20.1629 28.0506H20.1668C24.6946 28.0504 28.3797 24.3649 28.3816 19.8348C28.3826 17.6401 27.5284 15.5758 25.9773 14.0233C24.5232 12.5674 22.62 11.7244 20.5799 11.6238L20.1697 11.6131ZM16.6843 15.3289C16.8481 15.3289 17.011 15.3297 17.1531 15.3367V15.3377C17.1733 15.3388 17.1947 15.3388 17.2146 15.3387C17.235 15.3386 17.255 15.3385 17.2752 15.3397C17.3151 15.342 17.3555 15.3487 17.3963 15.368C17.4772 15.4064 17.572 15.4994 17.6697 15.7342C17.7722 15.98 17.9462 16.4048 18.1023 16.784C18.2576 17.1611 18.3966 17.4961 18.4285 17.5604C18.4872 17.6783 18.5225 17.8069 18.449 17.9539C18.3659 18.1196 18.3277 18.2168 18.2088 18.3553C18.0831 18.5017 17.9514 18.6741 17.8425 18.783C17.7824 18.843 17.7126 18.9135 17.6795 19.0027C17.6449 19.0958 17.6519 19.2034 17.7283 19.3348C17.8723 19.5821 18.368 20.3916 19.1033 21.0477C20.0474 21.8893 20.847 22.1522 21.0886 22.2733C21.2141 22.3361 21.3204 22.3658 21.4168 22.3543C21.515 22.3424 21.596 22.2886 21.6716 22.202C21.8147 22.0387 22.2875 21.483 22.4529 21.2342C22.5301 21.1181 22.602 21.0767 22.6756 21.0682C22.7537 21.0592 22.8421 21.0854 22.9558 21.1268C23.066 21.1669 23.422 21.3349 23.784 21.5096C24.1445 21.6836 24.5078 21.8631 24.6306 21.9246C24.7559 21.9874 24.8557 22.0317 24.9343 22.075C25.0124 22.118 25.0594 22.1549 25.0838 22.1961L25.0847 22.1971C25.0946 22.2139 25.1058 22.2555 25.1111 22.324C25.1163 22.3906 25.116 22.4772 25.1072 22.5789C25.0896 22.783 25.0384 23.0464 24.9373 23.3299C24.8397 23.6032 24.5534 23.8716 24.2254 24.0818C23.8983 24.2915 23.5404 24.4363 23.3123 24.4705C22.8924 24.5332 22.364 24.5593 21.784 24.3748C21.4276 24.2619 20.9708 24.1106 20.3865 23.8582C17.9343 22.7988 16.3311 20.328 16.2058 20.1609C16.1443 20.0789 15.8953 19.7486 15.6619 19.2889C15.4278 18.8277 15.2107 18.2397 15.2107 17.6443C15.2108 16.4528 15.8351 15.8688 16.0603 15.6229C16.2763 15.3871 16.5303 15.329 16.6843 15.3289Z" fill="white" stroke="white" stroke-width="0.0834177"/>
</svg>
