<svg width="264" height="189" viewBox="0 0 264 189" fill="none" xmlns="http://www.w3.org/2000/svg">
<rect width="264" height="188.153" rx="24" fill="white" fill-opacity="0.16"/>
<path d="M27.108 32.3664H24.983C24.9223 32.0179 24.8106 31.7092 24.6477 31.4403C24.4848 31.1676 24.2822 30.9365 24.0398 30.7471C23.7973 30.5577 23.5208 30.4157 23.2102 30.321C22.9034 30.2225 22.572 30.1733 22.2159 30.1733C21.5833 30.1733 21.0227 30.3323 20.5341 30.6505C20.0455 30.9649 19.6629 31.427 19.3864 32.0369C19.1098 32.6429 18.9716 33.3835 18.9716 34.2585C18.9716 35.1486 19.1098 35.8986 19.3864 36.5085C19.6667 37.1145 20.0492 37.5729 20.5341 37.8835C21.0227 38.1903 21.5814 38.3437 22.2102 38.3437C22.5587 38.3437 22.8845 38.2983 23.1875 38.2073C23.4943 38.1126 23.7689 37.9744 24.0114 37.7926C24.2576 37.6108 24.464 37.3873 24.6307 37.1221C24.8011 36.857 24.9186 36.5539 24.983 36.213L27.108 36.2244C27.0284 36.7774 26.8561 37.2964 26.5909 37.7812C26.3295 38.2661 25.9867 38.6941 25.5625 39.0653C25.1383 39.4327 24.642 39.7206 24.0739 39.9289C23.5057 40.1335 22.875 40.2358 22.1818 40.2358C21.1591 40.2358 20.2462 39.999 19.4432 39.5255C18.6402 39.052 18.0076 38.3683 17.5455 37.4744C17.0833 36.5804 16.8523 35.5085 16.8523 34.2585C16.8523 33.0047 17.0852 31.9327 17.5511 31.0426C18.017 30.1486 18.6515 29.4649 19.4545 28.9914C20.2576 28.5179 21.1667 28.2812 22.1818 28.2812C22.8295 28.2812 23.4318 28.3721 23.9886 28.5539C24.5455 28.7358 25.0417 29.0028 25.4773 29.3551C25.9129 29.7036 26.2708 30.1316 26.5511 30.6392C26.8352 31.1429 27.0208 31.7187 27.108 32.3664ZM33.0743 40.2471C32.222 40.2471 31.4834 40.0596 30.8584 39.6846C30.2334 39.3096 29.7485 38.785 29.4038 38.1108C29.0629 37.4365 28.8924 36.6486 28.8924 35.7471C28.8924 34.8456 29.0629 34.0558 29.4038 33.3778C29.7485 32.6998 30.2334 32.1733 30.8584 31.7983C31.4834 31.4233 32.222 31.2358 33.0743 31.2358C33.9265 31.2358 34.6652 31.4233 35.2902 31.7983C35.9152 32.1733 36.3981 32.6998 36.739 33.3778C37.0837 34.0558 37.2561 34.8456 37.2561 35.7471C37.2561 36.6486 37.0837 37.4365 36.739 38.1108C36.3981 38.785 35.9152 39.3096 35.2902 39.6846C34.6652 40.0596 33.9265 40.2471 33.0743 40.2471ZM33.0856 38.5994C33.5477 38.5994 33.9341 38.4725 34.2447 38.2187C34.5553 37.9611 34.7864 37.6164 34.9379 37.1846C35.0932 36.7528 35.1709 36.2717 35.1709 35.7414C35.1709 35.2073 35.0932 34.7244 34.9379 34.2926C34.7864 33.857 34.5553 33.5104 34.2447 33.2528C33.9341 32.9952 33.5477 32.8664 33.0856 32.8664C32.6121 32.8664 32.2182 32.9952 31.9038 33.2528C31.5932 33.5104 31.3602 33.857 31.2049 34.2926C31.0534 34.7244 30.9777 35.2073 30.9777 35.7414C30.9777 36.2717 31.0534 36.7528 31.2049 37.1846C31.3602 37.6164 31.5932 37.9611 31.9038 38.2187C32.2182 38.4725 32.6121 38.5994 33.0856 38.5994ZM41.3786 34.963V40.0767H39.3218V31.3494H41.2877V32.8323H41.39C41.5908 32.3437 41.9108 31.9554 42.3502 31.6676C42.7934 31.3797 43.3408 31.2358 43.9923 31.2358C44.5945 31.2358 45.1192 31.3645 45.5661 31.6221C46.0169 31.8797 46.3654 32.2528 46.6116 32.7414C46.8616 33.2301 46.9847 33.8229 46.9809 34.5198V40.0767H44.9241V34.838C44.9241 34.2547 44.7726 33.7983 44.4695 33.4687C44.1703 33.1392 43.7555 32.9744 43.2252 32.9744C42.8654 32.9744 42.5453 33.0539 42.265 33.213C41.9885 33.3683 41.7707 33.5937 41.6116 33.8892C41.4563 34.1846 41.3786 34.5426 41.3786 34.963ZM56.2895 33.6562L54.4145 33.8608C54.3615 33.6714 54.2687 33.4933 54.1361 33.3267C54.0073 33.16 53.8331 33.0255 53.6134 32.9233C53.3937 32.821 53.1248 32.7698 52.8066 32.7698C52.3786 32.7698 52.0187 32.8626 51.727 33.0483C51.4392 33.2339 51.2971 33.4744 51.3009 33.7698C51.2971 34.0236 51.3899 34.2301 51.5793 34.3892C51.7725 34.5483 52.0907 34.6789 52.5339 34.7812L54.0225 35.0994C54.8483 35.2774 55.4619 35.5596 55.8634 35.946C56.2687 36.3323 56.4733 36.838 56.477 37.463C56.4733 38.0123 56.3123 38.4971 55.9941 38.9176C55.6797 39.3342 55.2422 39.66 54.6816 39.8948C54.121 40.1297 53.477 40.2471 52.7498 40.2471C51.6816 40.2471 50.8217 40.0236 50.1702 39.5767C49.5187 39.1259 49.1305 38.499 49.0055 37.696L51.0111 37.5028C51.102 37.8967 51.2952 38.1941 51.5907 38.3948C51.8861 38.5956 52.2706 38.696 52.7441 38.696C53.2327 38.696 53.6248 38.5956 53.9202 38.3948C54.2195 38.1941 54.3691 37.946 54.3691 37.6505C54.3691 37.4005 54.2725 37.1941 54.0793 37.0312C53.8899 36.8683 53.5945 36.7433 53.193 36.6562L51.7043 36.3437C50.8672 36.1695 50.2479 35.8759 49.8464 35.463C49.4448 35.0464 49.246 34.5198 49.2498 33.8835C49.246 33.3456 49.3918 32.8797 49.6873 32.4858C49.9865 32.088 50.4013 31.7812 50.9316 31.5653C51.4657 31.3456 52.0812 31.2358 52.7782 31.2358C53.8009 31.2358 54.6058 31.4536 55.193 31.8892C55.7839 32.3248 56.1494 32.9138 56.2895 33.6562ZM64.0556 36.4062V31.3494H66.1124V40.0767H64.1181V38.5255H64.0272C63.8302 39.0142 63.5063 39.4138 63.0556 39.7244C62.6086 40.035 62.0575 40.1903 61.4022 40.1903C60.8302 40.1903 60.3245 40.0634 59.8851 39.8096C59.4495 39.552 59.1086 39.1789 58.8624 38.6903C58.6162 38.1979 58.4931 37.6032 58.4931 36.9062V31.3494H60.5499V36.588C60.5499 37.1411 60.7014 37.5804 61.0044 37.9062C61.3075 38.232 61.7052 38.3948 62.1976 38.3948C62.5006 38.3948 62.7942 38.321 63.0783 38.1733C63.3624 38.0255 63.5953 37.8058 63.7772 37.5142C63.9628 37.2187 64.0556 36.8494 64.0556 36.4062ZM70.6043 28.4403V40.0767H68.5474V28.4403H70.6043ZM77.3973 31.3494V32.9403H72.3802V31.3494H77.3973ZM73.6189 29.2585H75.6757V37.4517C75.6757 37.7282 75.7173 37.9403 75.8007 38.088C75.8878 38.232 76.0014 38.3304 76.1416 38.3835C76.2817 38.4365 76.437 38.463 76.6075 38.463C76.7363 38.463 76.8537 38.4536 76.9598 38.4346C77.0696 38.4157 77.153 38.3986 77.2098 38.3835L77.5564 39.9914C77.4465 40.0293 77.2893 40.071 77.0848 40.1164C76.884 40.1619 76.6378 40.1884 76.3461 40.196C75.831 40.2111 75.367 40.1335 74.9541 39.963C74.5412 39.7888 74.2136 39.5198 73.9711 39.1562C73.7325 38.7926 73.6151 38.338 73.6189 37.7926V29.2585ZM83.2073 40.2471C82.3323 40.2471 81.5766 40.0653 80.9403 39.7017C80.3077 39.3342 79.821 38.8153 79.4801 38.1448C79.1391 37.4706 78.9687 36.677 78.9687 35.7642C78.9687 34.8664 79.1391 34.0786 79.4801 33.4005C79.8248 32.7187 80.3058 32.1884 80.9232 31.8096C81.5407 31.427 82.266 31.2358 83.0994 31.2358C83.6373 31.2358 84.1448 31.3229 84.6221 31.4971C85.1032 31.6676 85.5274 31.9327 85.8948 32.2926C86.266 32.6524 86.5577 33.1108 86.7698 33.6676C86.982 34.2206 87.088 34.8797 87.088 35.6448V36.2755H79.9346V34.8892H85.1164C85.1126 34.4952 85.0274 34.1448 84.8607 33.838C84.6941 33.5274 84.4611 33.2831 84.1619 33.1051C83.8664 32.927 83.5217 32.838 83.1278 32.838C82.7073 32.838 82.338 32.9403 82.0198 33.1448C81.7016 33.3456 81.4535 33.6108 81.2755 33.9403C81.1013 34.2661 81.0123 34.624 81.0085 35.0142V36.2244C81.0085 36.732 81.1013 37.1676 81.2869 37.5312C81.4725 37.8911 81.732 38.1676 82.0653 38.3608C82.3986 38.5501 82.7888 38.6448 83.2357 38.6448C83.535 38.6448 83.8058 38.6032 84.0482 38.5198C84.2907 38.4327 84.5009 38.3058 84.6789 38.1392C84.857 37.9725 84.9914 37.7661 85.0823 37.5198L87.0028 37.7358C86.8816 38.2433 86.6505 38.6865 86.3096 39.0653C85.9725 39.4403 85.5407 39.732 85.0141 39.9403C84.4876 40.1448 83.8854 40.2471 83.2073 40.2471ZM19.5682 64.2528C19.0152 64.2528 18.517 64.1543 18.0739 63.9573C17.6345 63.7566 17.286 63.4611 17.0284 63.071C16.7746 62.6808 16.6477 62.1998 16.6477 61.6278C16.6477 61.1354 16.7386 60.7282 16.9205 60.4062C17.1023 60.0842 17.3504 59.8267 17.6648 59.6335C17.9792 59.4403 18.3333 59.2945 18.7273 59.196C19.125 59.0937 19.536 59.0198 19.9602 58.9744C20.4716 58.9214 20.8864 58.874 21.2045 58.8323C21.5227 58.7869 21.7538 58.7187 21.8977 58.6278C22.0455 58.5331 22.1193 58.3873 22.1193 58.1903V58.1562C22.1193 57.7282 21.9924 57.3967 21.7386 57.1619C21.4848 56.927 21.1193 56.8096 20.642 56.8096C20.1383 56.8096 19.7386 56.9195 19.4432 57.1392C19.1515 57.3589 18.9545 57.6183 18.8523 57.9176L16.9318 57.6448C17.0833 57.1145 17.3333 56.6714 17.6818 56.3153C18.0303 55.9554 18.4564 55.6865 18.9602 55.5085C19.464 55.3267 20.0208 55.2358 20.6307 55.2358C21.0511 55.2358 21.4697 55.285 21.8864 55.3835C22.303 55.482 22.6837 55.6448 23.0284 55.8721C23.3731 56.0956 23.6496 56.4005 23.858 56.7869C24.0701 57.1733 24.1761 57.6562 24.1761 58.2358V64.0767H22.1989V62.8778H22.1307C22.0057 63.1202 21.8295 63.3475 21.6023 63.5596C21.3788 63.7679 21.0966 63.9365 20.7557 64.0653C20.4186 64.1903 20.0227 64.2528 19.5682 64.2528ZM20.1023 62.7414C20.5152 62.7414 20.8731 62.66 21.1761 62.4971C21.4792 62.3304 21.7121 62.1108 21.875 61.838C22.0417 61.5653 22.125 61.2679 22.125 60.946V59.9176C22.0606 59.9706 21.9508 60.0198 21.7955 60.0653C21.6439 60.1108 21.4735 60.1505 21.2841 60.1846C21.0947 60.2187 20.9072 60.249 20.7216 60.2755C20.536 60.302 20.375 60.3248 20.2386 60.3437C19.9318 60.3854 19.6572 60.4536 19.4148 60.5483C19.1723 60.6429 18.9811 60.7755 18.8409 60.946C18.7008 61.1126 18.6307 61.3286 18.6307 61.5937C18.6307 61.9725 18.7689 62.2585 19.0455 62.4517C19.322 62.6448 19.6742 62.7414 20.1023 62.7414ZM32.3882 67.3494V62.7017H32.303C32.1969 62.9138 32.0435 63.1392 31.8427 63.3778C31.642 63.6126 31.3768 63.8134 31.0473 63.9801C30.7177 64.1467 30.303 64.2301 29.803 64.2301C29.1173 64.2301 28.5037 64.0539 27.962 63.7017C27.4204 63.3494 26.9923 62.838 26.678 62.1676C26.3636 61.4971 26.2064 60.6827 26.2064 59.7244C26.2064 58.7547 26.3655 57.9365 26.6836 57.2698C27.0056 56.5994 27.4393 56.0937 27.9848 55.7528C28.5302 55.4081 29.1382 55.2358 29.8086 55.2358C30.32 55.2358 30.7405 55.3229 31.07 55.4971C31.3995 55.6676 31.6609 55.874 31.8541 56.1164C32.0473 56.3551 32.1969 56.5804 32.303 56.7926H32.428V55.3494H34.4507V67.3494H32.3882ZM30.3768 62.5426C30.8124 62.5426 31.1836 62.4251 31.4905 62.1903C31.7973 61.9517 32.0302 61.6202 32.1893 61.196C32.3484 60.7717 32.428 60.2774 32.428 59.713C32.428 59.1486 32.3484 58.6581 32.1893 58.2414C32.034 57.8248 31.803 57.5009 31.4961 57.2698C31.1931 57.0388 30.82 56.9233 30.3768 56.9233C29.9185 56.9233 29.5359 57.0426 29.2291 57.2812C28.9223 57.5198 28.6912 57.8494 28.5359 58.2698C28.3806 58.6903 28.303 59.1714 28.303 59.713C28.303 60.2585 28.3806 60.7452 28.5359 61.1733C28.695 61.5975 28.928 61.9327 29.2348 62.1789C29.5454 62.4214 29.9261 62.5426 30.3768 62.5426ZM42.4468 60.4062V55.3494H44.5036V64.0767H42.5093V62.5255H42.4184C42.2214 63.0142 41.8976 63.4138 41.4468 63.7244C40.9998 64.035 40.4487 64.1903 39.7934 64.1903C39.2214 64.1903 38.7158 64.0634 38.2764 63.8096C37.8408 63.552 37.4998 63.1789 37.2536 62.6903C37.0074 62.1979 36.8843 61.6032 36.8843 60.9062V55.3494H38.9411V60.588C38.9411 61.1411 39.0927 61.5804 39.3957 61.9062C39.6987 62.232 40.0964 62.3948 40.5889 62.3948C40.8919 62.3948 41.1855 62.321 41.4695 62.1733C41.7536 62.0255 41.9866 61.8058 42.1684 61.5142C42.354 61.2187 42.4468 60.8494 42.4468 60.4062ZM46.9387 64.0767V55.3494H48.9955V64.0767H46.9387ZM47.9728 54.1108C47.647 54.1108 47.3667 54.0028 47.1319 53.7869C46.897 53.5672 46.7796 53.3039 46.7796 52.9971C46.7796 52.6865 46.897 52.4233 47.1319 52.2073C47.3667 51.9876 47.647 51.8778 47.9728 51.8778C48.3023 51.8778 48.5826 51.9876 48.8137 52.2073C49.0485 52.4233 49.166 52.6865 49.166 52.9971C49.166 53.3039 49.0485 53.5672 48.8137 53.7869C48.5826 54.0028 48.3023 54.1108 47.9728 54.1108ZM59.5261 64.2471C58.6739 64.2471 57.9352 64.0596 57.3102 63.6846C56.6852 63.3096 56.2004 62.785 55.8557 62.1108C55.5148 61.4365 55.3443 60.6486 55.3443 59.7471C55.3443 58.8456 55.5148 58.0558 55.8557 57.3778C56.2004 56.6998 56.6852 56.1733 57.3102 55.7983C57.9352 55.4233 58.6739 55.2358 59.5261 55.2358C60.3784 55.2358 61.117 55.4233 61.742 55.7983C62.367 56.1733 62.85 56.6998 63.1909 57.3778C63.5356 58.0558 63.708 58.8456 63.708 59.7471C63.708 60.6486 63.5356 61.4365 63.1909 62.1108C62.85 62.785 62.367 63.3096 61.742 63.6846C61.117 64.0596 60.3784 64.2471 59.5261 64.2471ZM59.5375 62.5994C59.9996 62.5994 60.386 62.4725 60.6966 62.2187C61.0072 61.9611 61.2383 61.6164 61.3898 61.1846C61.5451 60.7528 61.6227 60.2717 61.6227 59.7414C61.6227 59.2073 61.5451 58.7244 61.3898 58.2926C61.2383 57.857 61.0072 57.5104 60.6966 57.2528C60.386 56.9952 59.9996 56.8664 59.5375 56.8664C59.064 56.8664 58.6701 56.9952 58.3557 57.2528C58.0451 57.5104 57.8121 57.857 57.6568 58.2926C57.5053 58.7244 57.4295 59.2073 57.4295 59.7414C57.4295 60.2717 57.5053 60.7528 57.6568 61.1846C57.8121 61.6164 58.0451 61.9611 58.3557 62.2187C58.6701 62.4725 59.064 62.5994 59.5375 62.5994ZM20.8636 88.2471C19.9924 88.2471 19.2443 88.0558 18.6193 87.6733C17.9981 87.2907 17.5189 86.7623 17.1818 86.088C16.8485 85.41 16.6818 84.6297 16.6818 83.7471C16.6818 82.8608 16.8523 82.0786 17.1932 81.4005C17.5341 80.7187 18.0152 80.1884 18.6364 79.8096C19.2614 79.427 20 79.2358 20.8523 79.2358C21.5606 79.2358 22.1875 79.3664 22.733 79.6278C23.2822 79.8854 23.7197 80.2509 24.0455 80.7244C24.3712 81.1941 24.5568 81.7433 24.6023 82.3721H22.6364C22.5568 81.9517 22.3674 81.6013 22.0682 81.321C21.7727 81.0369 21.3769 80.8948 20.8807 80.8948C20.4602 80.8948 20.0909 81.0085 19.7727 81.2358C19.4545 81.4592 19.2064 81.7812 19.0284 82.2017C18.8542 82.6221 18.767 83.1259 18.767 83.713C18.767 84.3077 18.8542 84.8191 19.0284 85.2471C19.2027 85.6714 19.447 85.999 19.7614 86.2301C20.0795 86.4573 20.4527 86.571 20.8807 86.571C21.1837 86.571 21.4545 86.5142 21.6932 86.4005C21.9356 86.2831 22.1383 86.1145 22.3011 85.8948C22.464 85.6751 22.5758 85.4081 22.6364 85.0937H24.6023C24.553 85.7111 24.3712 86.2585 24.0568 86.7358C23.7424 87.2092 23.3144 87.5804 22.7727 87.8494C22.2311 88.1145 21.5947 88.2471 20.8636 88.2471ZM29.1226 88.2528C28.5695 88.2528 28.0714 88.1543 27.6282 87.9573C27.1888 87.7566 26.8404 87.4611 26.5828 87.071C26.329 86.6808 26.2021 86.1998 26.2021 85.6278C26.2021 85.1354 26.293 84.7282 26.4748 84.4062C26.6566 84.0842 26.9048 83.8267 27.2191 83.6335C27.5335 83.4403 27.8877 83.2945 28.2816 83.196C28.6794 83.0937 29.0904 83.0198 29.5146 82.9744C30.026 82.9214 30.4407 82.874 30.7589 82.8323C31.0771 82.7869 31.3082 82.7187 31.4521 82.6278C31.5998 82.5331 31.6737 82.3873 31.6737 82.1903V82.1562C31.6737 81.7282 31.5468 81.3967 31.293 81.1619C31.0392 80.927 30.6737 80.8096 30.1964 80.8096C29.6926 80.8096 29.293 80.9195 28.9976 81.1392C28.7059 81.3589 28.5089 81.6183 28.4066 81.9176L26.4862 81.6448C26.6377 81.1145 26.8877 80.6714 27.2362 80.3153C27.5847 79.9554 28.0108 79.6865 28.5146 79.5085C29.0184 79.3267 29.5752 79.2358 30.1851 79.2358C30.6055 79.2358 31.0241 79.285 31.4407 79.3835C31.8574 79.482 32.2381 79.6448 32.5828 79.8721C32.9275 80.0956 33.204 80.4005 33.4123 80.7869C33.6245 81.1733 33.7305 81.6562 33.7305 82.2358V88.0767H31.7532V86.8778H31.6851C31.5601 87.1202 31.3839 87.3475 31.1566 87.5596C30.9332 87.7679 30.651 87.9365 30.3101 88.0653C29.9729 88.1903 29.5771 88.2528 29.1226 88.2528ZM29.6566 86.7414C30.0695 86.7414 30.4275 86.66 30.7305 86.4971C31.0335 86.3304 31.2665 86.1108 31.4294 85.838C31.596 85.5653 31.6794 85.2679 31.6794 84.946V83.9176C31.615 83.9706 31.5051 84.0198 31.3498 84.0653C31.1983 84.1108 31.0279 84.1505 30.8385 84.1846C30.6491 84.2187 30.4616 84.249 30.276 84.2755C30.0904 84.302 29.9294 84.3248 29.793 84.3437C29.4862 84.3854 29.2116 84.4536 28.9691 84.5483C28.7267 84.6429 28.5354 84.7755 28.3953 84.946C28.2551 85.1126 28.1851 85.3286 28.1851 85.5937C28.1851 85.9725 28.3233 86.2585 28.5998 86.4517C28.8763 86.6448 29.2286 86.7414 29.6566 86.7414ZM39.3573 88.2301C38.6717 88.2301 38.0581 88.0539 37.5164 87.7017C36.9748 87.3494 36.5467 86.838 36.2323 86.1676C35.9179 85.4971 35.7607 84.6827 35.7607 83.7244C35.7607 82.7547 35.9198 81.9365 36.238 81.2698C36.56 80.5994 36.9937 80.0937 37.5391 79.7528C38.0846 79.4081 38.6926 79.2358 39.363 79.2358C39.8744 79.2358 40.2948 79.3229 40.6244 79.4971C40.9539 79.6676 41.2153 79.874 41.4085 80.1164C41.6016 80.3551 41.7513 80.5804 41.8573 80.7926H41.9426V76.4403H44.0051V88.0767H41.9823V86.7017H41.8573C41.7513 86.9138 41.5979 87.1392 41.3971 87.3778C41.1963 87.6126 40.9312 87.8134 40.6016 87.9801C40.2721 88.1467 39.8573 88.2301 39.3573 88.2301ZM39.9312 86.5426C40.3668 86.5426 40.738 86.4251 41.0448 86.1903C41.3516 85.9517 41.5846 85.6202 41.7437 85.196C41.9028 84.7717 41.9823 84.2774 41.9823 83.713C41.9823 83.1486 41.9028 82.6581 41.7437 82.2414C41.5884 81.8248 41.3573 81.5009 41.0505 81.2698C40.7475 81.0388 40.3744 80.9233 39.9312 80.9233C39.4729 80.9233 39.0903 81.0426 38.7835 81.2812C38.4766 81.5198 38.2456 81.8494 38.0903 82.2698C37.935 82.6903 37.8573 83.1714 37.8573 83.713C37.8573 84.2585 37.935 84.7452 38.0903 85.1733C38.2494 85.5975 38.4823 85.9327 38.7891 86.1789C39.0998 86.4214 39.4804 86.5426 39.9312 86.5426ZM49.0282 88.2528C48.4752 88.2528 47.977 88.1543 47.5339 87.9573C47.0945 87.7566 46.746 87.4611 46.4884 87.071C46.2346 86.6808 46.1077 86.1998 46.1077 85.6278C46.1077 85.1354 46.1986 84.7282 46.3805 84.4062C46.5623 84.0842 46.8104 83.8267 47.1248 83.6335C47.4392 83.4403 47.7933 83.2945 48.1873 83.196C48.585 83.0937 48.996 83.0198 49.4202 82.9744C49.9316 82.9214 50.3464 82.874 50.6645 82.8323C50.9827 82.7869 51.2138 82.7187 51.3577 82.6278C51.5055 82.5331 51.5793 82.3873 51.5793 82.1903V82.1562C51.5793 81.7282 51.4524 81.3967 51.1986 81.1619C50.9448 80.927 50.5793 80.8096 50.102 80.8096C49.5983 80.8096 49.1986 80.9195 48.9032 81.1392C48.6115 81.3589 48.4145 81.6183 48.3123 81.9176L46.3918 81.6448C46.5433 81.1145 46.7933 80.6714 47.1418 80.3153C47.4903 79.9554 47.9164 79.6865 48.4202 79.5085C48.924 79.3267 49.4808 79.2358 50.0907 79.2358C50.5111 79.2358 50.9297 79.285 51.3464 79.3835C51.763 79.482 52.1437 79.6448 52.4884 79.8721C52.8331 80.0956 53.1096 80.4005 53.318 80.7869C53.5301 81.1733 53.6361 81.6562 53.6361 82.2358V88.0767H51.6589V86.8778H51.5907C51.4657 87.1202 51.2895 87.3475 51.0623 87.5596C50.8388 87.7679 50.5566 87.9365 50.2157 88.0653C49.8786 88.1903 49.4827 88.2528 49.0282 88.2528ZM49.5623 86.7414C49.9752 86.7414 50.3331 86.66 50.6361 86.4971C50.9392 86.3304 51.1721 86.1108 51.335 85.838C51.5017 85.5653 51.585 85.2679 51.585 84.946V83.9176C51.5206 83.9706 51.4108 84.0198 51.2555 84.0653C51.1039 84.1108 50.9335 84.1505 50.7441 84.1846C50.5547 84.2187 50.3672 84.249 50.1816 84.2755C49.996 84.302 49.835 84.3248 49.6986 84.3437C49.3918 84.3854 49.1172 84.4536 48.8748 84.5483C48.6323 84.6429 48.4411 84.7755 48.3009 84.946C48.1608 85.1126 48.0907 85.3286 48.0907 85.5937C48.0907 85.9725 48.2289 86.2585 48.5055 86.4517C48.782 86.6448 49.1342 86.7414 49.5623 86.7414ZM62.922 81.6562L61.047 81.8608C60.994 81.6714 60.9012 81.4933 60.7686 81.3267C60.6398 81.16 60.4656 81.0255 60.2459 80.9233C60.0262 80.821 59.7573 80.7698 59.4391 80.7698C59.0111 80.7698 58.6512 80.8626 58.3595 81.0483C58.0717 81.2339 57.9296 81.4744 57.9334 81.7698C57.9296 82.0236 58.0224 82.2301 58.2118 82.3892C58.405 82.5483 58.7232 82.6789 59.1664 82.7812L60.655 83.0994C61.4808 83.2774 62.0944 83.5596 62.4959 83.946C62.9012 84.3323 63.1058 84.838 63.1095 85.463C63.1058 86.0123 62.9448 86.4971 62.6266 86.9176C62.3122 87.3342 61.8747 87.66 61.3141 87.8948C60.7535 88.1297 60.1095 88.2471 59.3823 88.2471C58.3141 88.2471 57.4542 88.0236 56.8027 87.5767C56.1512 87.1259 55.763 86.499 55.638 85.696L57.6436 85.5028C57.7345 85.8967 57.9277 86.1941 58.2232 86.3948C58.5186 86.5956 58.9031 86.696 59.3766 86.696C59.8652 86.696 60.2573 86.5956 60.5527 86.3948C60.852 86.1941 61.0016 85.946 61.0016 85.6505C61.0016 85.4005 60.905 85.1941 60.7118 85.0312C60.5224 84.8683 60.227 84.7433 59.8255 84.6562L58.3368 84.3437C57.4997 84.1695 56.8804 83.8759 56.4789 83.463C56.0773 83.0464 55.8785 82.5198 55.8823 81.8835C55.8785 81.3456 56.0243 80.8797 56.3198 80.4858C56.619 80.088 57.0338 79.7812 57.5641 79.5653C58.0982 79.3456 58.7137 79.2358 59.4107 79.2358C60.4334 79.2358 61.2383 79.4536 61.8255 79.8892C62.4164 80.3248 62.7819 80.9138 62.922 81.6562ZM69.4835 79.3494V80.9403H64.4665V79.3494H69.4835ZM65.7051 77.2585H67.7619V85.4517C67.7619 85.7282 67.8036 85.9403 67.8869 86.088C67.9741 86.232 68.0877 86.3304 68.2278 86.3835C68.368 86.4365 68.5233 86.463 68.6937 86.463C68.8225 86.463 68.94 86.4536 69.046 86.4346C69.1559 86.4157 69.2392 86.3986 69.296 86.3835L69.6426 87.9914C69.5328 88.0293 69.3756 88.071 69.171 88.1164C68.9703 88.1619 68.7241 88.1884 68.4324 88.196C67.9172 88.2111 67.4532 88.1335 67.0403 87.963C66.6275 87.7888 66.2998 87.5198 66.0574 87.1562C65.8187 86.7926 65.7013 86.338 65.7051 85.7926V77.2585ZM71.5237 88.0767V79.3494H73.518V80.8039H73.6089C73.768 80.3001 74.0407 79.9119 74.4271 79.6392C74.8173 79.3626 75.2623 79.2244 75.7623 79.2244C75.876 79.2244 76.0029 79.2301 76.143 79.2414C76.2869 79.249 76.4063 79.2623 76.501 79.2812V81.1733C76.4138 81.1429 76.2756 81.1164 76.0862 81.0937C75.9006 81.0672 75.7207 81.0539 75.5464 81.0539C75.1714 81.0539 74.8343 81.1354 74.5351 81.2983C74.2396 81.4573 74.0066 81.6789 73.8362 81.963C73.6657 82.2471 73.5805 82.5748 73.5805 82.946V88.0767H71.5237ZM81.6349 88.2471C80.7826 88.2471 80.044 88.0596 79.419 87.6846C78.794 87.3096 78.3091 86.785 77.9644 86.1108C77.6235 85.4365 77.4531 84.6486 77.4531 83.7471C77.4531 82.8456 77.6235 82.0558 77.9644 81.3778C78.3091 80.6998 78.794 80.1733 79.419 79.7983C80.044 79.4233 80.7826 79.2358 81.6349 79.2358C82.4872 79.2358 83.2258 79.4233 83.8508 79.7983C84.4758 80.1733 84.9588 80.6998 85.2997 81.3778C85.6444 82.0558 85.8167 82.8456 85.8167 83.7471C85.8167 84.6486 85.6444 85.4365 85.2997 86.1108C84.9588 86.785 84.4758 87.3096 83.8508 87.6846C83.2258 88.0596 82.4872 88.2471 81.6349 88.2471ZM81.6463 86.5994C82.1084 86.5994 82.4947 86.4725 82.8053 86.2187C83.1159 85.9611 83.347 85.6164 83.4985 85.1846C83.6538 84.7528 83.7315 84.2717 83.7315 83.7414C83.7315 83.2073 83.6538 82.7244 83.4985 82.2926C83.347 81.857 83.1159 81.5104 82.8053 81.2528C82.4947 80.9952 82.1084 80.8664 81.6463 80.8664C81.1728 80.8664 80.7788 80.9952 80.4644 81.2528C80.1538 81.5104 79.9209 81.857 79.7656 82.2926C79.6141 82.7244 79.5383 83.2073 79.5383 83.7414C79.5383 84.2717 79.6141 84.7528 79.7656 85.1846C79.9209 85.6164 80.1538 85.9611 80.4644 86.2187C80.7788 86.4725 81.1728 86.5994 81.6463 86.5994ZM95.4098 88.2301C94.7242 88.2301 94.1106 88.0539 93.5689 87.7017C93.0273 87.3494 92.5992 86.838 92.2848 86.1676C91.9704 85.4971 91.8132 84.6827 91.8132 83.7244C91.8132 82.7547 91.9723 81.9365 92.2905 81.2698C92.6125 80.5994 93.0462 80.0937 93.5916 79.7528C94.1371 79.4081 94.7451 79.2358 95.4155 79.2358C95.9269 79.2358 96.3473 79.3229 96.6769 79.4971C97.0064 79.6676 97.2678 79.874 97.461 80.1164C97.6541 80.3551 97.8038 80.5804 97.9098 80.7926H97.9951V76.4403H100.058V88.0767H98.0348V86.7017H97.9098C97.8038 86.9138 97.6504 87.1392 97.4496 87.3778C97.2488 87.6126 96.9837 87.8134 96.6541 87.9801C96.3246 88.1467 95.9098 88.2301 95.4098 88.2301ZM95.9837 86.5426C96.4193 86.5426 96.7905 86.4251 97.0973 86.1903C97.4041 85.9517 97.6371 85.6202 97.7962 85.196C97.9553 84.7717 98.0348 84.2774 98.0348 83.713C98.0348 83.1486 97.9553 82.6581 97.7962 82.2414C97.6409 81.8248 97.4098 81.5009 97.103 81.2698C96.8 81.0388 96.4269 80.9233 95.9837 80.9233C95.5254 80.9233 95.1428 81.0426 94.836 81.2812C94.5291 81.5198 94.2981 81.8494 94.1428 82.2698C93.9875 82.6903 93.9098 83.1714 93.9098 83.713C93.9098 84.2585 93.9875 84.7452 94.1428 85.1733C94.3019 85.5975 94.5348 85.9327 94.8416 86.1789C95.1523 86.4214 95.5329 86.5426 95.9837 86.5426ZM105.081 88.2528C104.528 88.2528 104.03 88.1543 103.586 87.9573C103.147 87.7566 102.798 87.4611 102.541 87.071C102.287 86.6808 102.16 86.1998 102.16 85.6278C102.16 85.1354 102.251 84.7282 102.433 84.4062C102.615 84.0842 102.863 83.8267 103.177 83.6335C103.492 83.4403 103.846 83.2945 104.24 83.196C104.637 83.0937 105.048 83.0198 105.473 82.9744C105.984 82.9214 106.399 82.874 106.717 82.8323C107.035 82.7869 107.266 82.7187 107.41 82.6278C107.558 82.5331 107.632 82.3873 107.632 82.1903V82.1562C107.632 81.7282 107.505 81.3967 107.251 81.1619C106.997 80.927 106.632 80.8096 106.155 80.8096C105.651 80.8096 105.251 80.9195 104.956 81.1392C104.664 81.3589 104.467 81.6183 104.365 81.9176L102.444 81.6448C102.596 81.1145 102.846 80.6714 103.194 80.3153C103.543 79.9554 103.969 79.6865 104.473 79.5085C104.977 79.3267 105.533 79.2358 106.143 79.2358C106.564 79.2358 106.982 79.285 107.399 79.3835C107.816 79.482 108.196 79.6448 108.541 79.8721C108.886 80.0956 109.162 80.4005 109.37 80.7869C109.583 81.1733 109.689 81.6562 109.689 82.2358V88.0767H107.711V86.8778H107.643C107.518 87.1202 107.342 87.3475 107.115 87.5596C106.891 87.7679 106.609 87.9365 106.268 88.0653C105.931 88.1903 105.535 88.2528 105.081 88.2528ZM105.615 86.7414C106.028 86.7414 106.386 86.66 106.689 86.4971C106.992 86.3304 107.225 86.1108 107.387 85.838C107.554 85.5653 107.637 85.2679 107.637 84.946V83.9176C107.573 83.9706 107.463 84.0198 107.308 84.0653C107.156 84.1108 106.986 84.1505 106.797 84.1846C106.607 84.2187 106.42 84.249 106.234 84.2755C106.048 84.302 105.887 84.3248 105.751 84.3437C105.444 84.3854 105.17 84.4536 104.927 84.5483C104.685 84.6429 104.494 84.7755 104.353 84.946C104.213 85.1126 104.143 85.3286 104.143 85.5937C104.143 85.9725 104.281 86.2585 104.558 86.4517C104.834 86.6448 105.187 86.7414 105.615 86.7414ZM19.2557 100.44V112.077H17.1477V100.44H19.2557ZM23.8243 106.963V112.077H21.7674V103.349H23.7334V104.832H23.8356C24.0364 104.344 24.3565 103.955 24.7959 103.668C25.239 103.38 25.7864 103.236 26.4379 103.236C27.0402 103.236 27.5648 103.365 28.0118 103.622C28.4625 103.88 28.811 104.253 29.0572 104.741C29.3072 105.23 29.4303 105.823 29.4265 106.52V112.077H27.3697V106.838C27.3697 106.255 27.2182 105.798 26.9152 105.469C26.6159 105.139 26.2012 104.974 25.6709 104.974C25.311 104.974 24.9909 105.054 24.7106 105.213C24.4341 105.368 24.2163 105.594 24.0572 105.889C23.9019 106.185 23.8243 106.543 23.8243 106.963ZM38.7352 105.656L36.8602 105.861C36.8071 105.671 36.7143 105.493 36.5818 105.327C36.453 105.16 36.2787 105.026 36.059 104.923C35.8393 104.821 35.5704 104.77 35.2522 104.77C34.8242 104.77 34.4643 104.863 34.1727 105.048C33.8848 105.234 33.7427 105.474 33.7465 105.77C33.7427 106.024 33.8355 106.23 34.0249 106.389C34.2181 106.548 34.5363 106.679 34.9795 106.781L36.4681 107.099C37.2939 107.277 37.9075 107.56 38.309 107.946C38.7143 108.332 38.9189 108.838 38.9227 109.463C38.9189 110.012 38.7579 110.497 38.4397 110.918C38.1253 111.334 37.6878 111.66 37.1272 111.895C36.5666 112.13 35.9227 112.247 35.1954 112.247C34.1272 112.247 33.2674 112.024 32.6159 111.577C31.9643 111.126 31.5761 110.499 31.4511 109.696L33.4568 109.503C33.5477 109.897 33.7409 110.194 34.0363 110.395C34.3318 110.596 34.7162 110.696 35.1897 110.696C35.6784 110.696 36.0704 110.596 36.3659 110.395C36.6651 110.194 36.8147 109.946 36.8147 109.651C36.8147 109.401 36.7181 109.194 36.5249 109.031C36.3355 108.868 36.0401 108.743 35.6386 108.656L34.1499 108.344C33.3128 108.169 32.6935 107.876 32.292 107.463C31.8905 107.046 31.6916 106.52 31.6954 105.883C31.6916 105.346 31.8374 104.88 32.1329 104.486C32.4321 104.088 32.8469 103.781 33.3772 103.565C33.9113 103.346 34.5268 103.236 35.2238 103.236C36.2465 103.236 37.0515 103.454 37.6386 103.889C38.2295 104.325 38.595 104.914 38.7352 105.656ZM45.2966 103.349V104.94H40.2796V103.349H45.2966ZM41.5182 101.258H43.5751V109.452C43.5751 109.728 43.6167 109.94 43.7001 110.088C43.7872 110.232 43.9008 110.33 44.041 110.383C44.1811 110.437 44.3364 110.463 44.5069 110.463C44.6357 110.463 44.7531 110.454 44.8591 110.435C44.969 110.416 45.0523 110.399 45.1091 110.383L45.4557 111.991C45.3459 112.029 45.1887 112.071 44.9841 112.116C44.7834 112.162 44.5372 112.188 44.2455 112.196C43.7304 112.211 43.2663 112.133 42.8535 111.963C42.4406 111.789 42.1129 111.52 41.8705 111.156C41.6319 110.793 41.5144 110.338 41.5182 109.793V101.258ZM47.3368 112.077V103.349H49.3936V112.077H47.3368ZM48.3709 102.111C48.0452 102.111 47.7648 102.003 47.53 101.787C47.2952 101.567 47.1777 101.304 47.1777 100.997C47.1777 100.687 47.2952 100.423 47.53 100.207C47.7648 99.9876 48.0452 99.8778 48.3709 99.8778C48.7005 99.8778 48.9808 99.9876 49.2118 100.207C49.4467 100.423 49.5641 100.687 49.5641 100.997C49.5641 101.304 49.4467 101.567 49.2118 101.787C48.9808 102.003 48.7005 102.111 48.3709 102.111ZM56.1866 103.349V104.94H51.1696V103.349H56.1866ZM52.4082 101.258H54.4651V109.452C54.4651 109.728 54.5067 109.94 54.5901 110.088C54.6772 110.232 54.7908 110.33 54.931 110.383C55.0711 110.437 55.2264 110.463 55.3969 110.463C55.5257 110.463 55.6431 110.454 55.7491 110.435C55.859 110.416 55.9423 110.399 55.9991 110.383L56.3457 111.991C56.2359 112.029 56.0787 112.071 55.8741 112.116C55.6734 112.162 55.4272 112.188 55.1355 112.196C54.6204 112.211 54.1563 112.133 53.7435 111.963C53.3306 111.789 53.0029 111.52 52.7605 111.156C52.5219 110.793 52.4044 110.338 52.4082 109.793V101.258ZM63.7893 108.406V103.349H65.8461V112.077H63.8518V110.526H63.7609C63.5639 111.014 63.2401 111.414 62.7893 111.724C62.3423 112.035 61.7912 112.19 61.1359 112.19C60.5639 112.19 60.0583 112.063 59.6189 111.81C59.1833 111.552 58.8423 111.179 58.5961 110.69C58.3499 110.198 58.2268 109.603 58.2268 108.906V103.349H60.2836V108.588C60.2836 109.141 60.4351 109.58 60.7382 109.906C61.0412 110.232 61.4389 110.395 61.9314 110.395C62.2344 110.395 62.528 110.321 62.812 110.173C63.0961 110.026 63.3291 109.806 63.5109 109.514C63.6965 109.219 63.7893 108.849 63.7893 108.406ZM68.2812 112.077V103.349H70.338V112.077H68.2812ZM69.3153 102.111C68.9895 102.111 68.7092 102.003 68.4744 101.787C68.2395 101.567 68.1221 101.304 68.1221 100.997C68.1221 100.687 68.2395 100.423 68.4744 100.207C68.7092 99.9876 68.9895 99.8778 69.3153 99.8778C69.6448 99.8778 69.9251 99.9876 70.1562 100.207C70.391 100.423 70.5085 100.687 70.5085 100.997C70.5085 101.304 70.391 101.567 70.1562 101.787C69.9251 102.003 69.6448 102.111 69.3153 102.111ZM76.5799 112.247C75.7087 112.247 74.9606 112.056 74.3356 111.673C73.7144 111.291 73.2352 110.762 72.8981 110.088C72.5647 109.41 72.3981 108.63 72.3981 107.747C72.3981 106.861 72.5685 106.079 72.9094 105.401C73.2503 104.719 73.7314 104.188 74.3526 103.81C74.9776 103.427 75.7163 103.236 76.5685 103.236C77.2769 103.236 77.9038 103.366 78.4492 103.628C78.9984 103.885 79.4359 104.251 79.7617 104.724C80.0875 105.194 80.2731 105.743 80.3185 106.372H78.3526C78.2731 105.952 78.0837 105.601 77.7844 105.321C77.489 105.037 77.0931 104.895 76.5969 104.895C76.1765 104.895 75.8072 105.008 75.489 105.236C75.1708 105.459 74.9227 105.781 74.7447 106.202C74.5704 106.622 74.4833 107.126 74.4833 107.713C74.4833 108.308 74.5704 108.819 74.7447 109.247C74.9189 109.671 75.1632 109.999 75.4776 110.23C75.7958 110.457 76.1689 110.571 76.5969 110.571C76.9 110.571 77.1708 110.514 77.4094 110.401C77.6519 110.283 77.8545 110.115 78.0174 109.895C78.1803 109.675 78.292 109.408 78.3526 109.094H80.3185C80.2693 109.711 80.0875 110.258 79.7731 110.736C79.4587 111.209 79.0306 111.58 78.489 111.849C77.9473 112.115 77.3109 112.247 76.5799 112.247ZM75.989 112.031H77.1026L77.0117 112.514C77.3678 112.567 77.6689 112.704 77.9151 112.923C78.1651 113.147 78.2901 113.467 78.2901 113.883C78.2939 114.421 78.0534 114.853 77.5685 115.179C77.0837 115.505 76.3924 115.668 75.4947 115.668L75.4719 114.656C75.9075 114.656 76.2541 114.597 76.5117 114.48C76.7693 114.366 76.9 114.185 76.9038 113.935C76.9113 113.692 76.8204 113.514 76.631 113.401C76.4454 113.291 76.15 113.215 75.7447 113.173L75.989 112.031ZM84.8388 112.253C84.2858 112.253 83.7877 112.154 83.3445 111.957C82.9051 111.757 82.5566 111.461 82.299 111.071C82.0452 110.681 81.9183 110.2 81.9183 109.628C81.9183 109.135 82.0093 108.728 82.1911 108.406C82.3729 108.084 82.621 107.827 82.9354 107.633C83.2498 107.44 83.604 107.294 83.9979 107.196C84.3956 107.094 84.8066 107.02 85.2308 106.974C85.7422 106.921 86.157 106.874 86.4752 106.832C86.7933 106.787 87.0244 106.719 87.1683 106.628C87.3161 106.533 87.3899 106.387 87.3899 106.19V106.156C87.3899 105.728 87.263 105.397 87.0093 105.162C86.7555 104.927 86.3899 104.81 85.9127 104.81C85.4089 104.81 85.0093 104.919 84.7138 105.139C84.4221 105.359 84.2252 105.618 84.1229 105.918L82.2024 105.645C82.354 105.115 82.604 104.671 82.9524 104.315C83.3009 103.955 83.7271 103.687 84.2308 103.508C84.7346 103.327 85.2915 103.236 85.9013 103.236C86.3218 103.236 86.7403 103.285 87.157 103.383C87.5737 103.482 87.9543 103.645 88.299 103.872C88.6437 104.096 88.9202 104.401 89.1286 104.787C89.3407 105.173 89.4468 105.656 89.4468 106.236V112.077H87.4695V110.878H87.4013C87.2763 111.12 87.1002 111.347 86.8729 111.56C86.6494 111.768 86.3672 111.937 86.0263 112.065C85.6892 112.19 85.2933 112.253 84.8388 112.253ZM85.3729 110.741C85.7858 110.741 86.1437 110.66 86.4468 110.497C86.7498 110.33 86.9827 110.111 87.1456 109.838C87.3123 109.565 87.3956 109.268 87.3956 108.946V107.918C87.3312 107.971 87.2214 108.02 87.0661 108.065C86.9146 108.111 86.7441 108.151 86.5547 108.185C86.3653 108.219 86.1778 108.249 85.9922 108.276C85.8066 108.302 85.6456 108.325 85.5093 108.344C85.2024 108.385 84.9278 108.454 84.6854 108.548C84.443 108.643 84.2517 108.776 84.1115 108.946C83.9714 109.113 83.9013 109.329 83.9013 109.594C83.9013 109.972 84.0396 110.258 84.3161 110.452C84.5926 110.645 84.9449 110.741 85.3729 110.741ZM84.3218 102.287L83.0774 102.258C83.0774 101.584 83.2517 101.056 83.6002 100.673C83.9487 100.291 84.3786 100.099 84.8899 100.099C85.1362 100.099 85.3502 100.141 85.532 100.224C85.7138 100.304 85.8805 100.397 86.032 100.503C86.1873 100.609 86.3388 100.704 86.4865 100.787C86.6343 100.866 86.7971 100.906 86.9752 100.906C87.1911 100.906 87.3615 100.825 87.4865 100.662C87.6153 100.499 87.6816 100.291 87.6854 100.037L88.907 100.088C88.9032 100.766 88.7271 101.293 88.3786 101.668C88.0301 102.039 87.6021 102.226 87.0945 102.23C86.8218 102.234 86.5926 102.194 86.407 102.111C86.2214 102.027 86.0585 101.933 85.9183 101.827C85.782 101.721 85.6437 101.628 85.5036 101.548C85.3634 101.465 85.1987 101.423 85.0093 101.423C84.8085 101.423 84.6437 101.503 84.5149 101.662C84.3862 101.821 84.3218 102.029 84.3218 102.287ZM95.6418 112.247C94.7895 112.247 94.0508 112.06 93.4258 111.685C92.8008 111.31 92.316 110.785 91.9713 110.111C91.6304 109.437 91.4599 108.649 91.4599 107.747C91.4599 106.846 91.6304 106.056 91.9713 105.378C92.316 104.7 92.8008 104.173 93.4258 103.798C94.0508 103.423 94.7895 103.236 95.6418 103.236C96.494 103.236 97.2327 103.423 97.8577 103.798C98.4827 104.173 98.9656 104.7 99.3065 105.378C99.6512 106.056 99.8236 106.846 99.8236 107.747C99.8236 108.649 99.6512 109.437 99.3065 110.111C98.9656 110.785 98.4827 111.31 97.8577 111.685C97.2327 112.06 96.494 112.247 95.6418 112.247ZM95.6531 110.599C96.1152 110.599 96.5016 110.472 96.8122 110.219C97.1228 109.961 97.3539 109.616 97.5054 109.185C97.6607 108.753 97.7383 108.272 97.7383 107.741C97.7383 107.207 97.6607 106.724 97.5054 106.293C97.3539 105.857 97.1228 105.51 96.8122 105.253C96.5016 104.995 96.1152 104.866 95.6531 104.866C95.1796 104.866 94.7857 104.995 94.4713 105.253C94.1607 105.51 93.9277 105.857 93.7724 106.293C93.6209 106.724 93.5452 107.207 93.5452 107.741C93.5452 108.272 93.6209 108.753 93.7724 109.185C93.9277 109.616 94.1607 109.961 94.4713 110.219C94.7857 110.472 95.1796 110.599 95.6531 110.599ZM19.1136 130.963V136.077H17.0568V127.349H19.0227V128.832H19.125C19.3258 128.344 19.6458 127.955 20.0852 127.668C20.5284 127.38 21.0758 127.236 21.7273 127.236C22.3295 127.236 22.8542 127.365 23.3011 127.622C23.7519 127.88 24.1004 128.253 24.3466 128.741C24.5966 129.23 24.7197 129.823 24.7159 130.52V136.077H22.6591V130.838C22.6591 130.255 22.5076 129.798 22.2045 129.469C21.9053 129.139 21.4905 128.974 20.9602 128.974C20.6004 128.974 20.2803 129.054 20 129.213C19.7235 129.368 19.5057 129.594 19.3466 129.889C19.1913 130.185 19.1136 130.543 19.1136 130.963ZM30.9336 136.247C30.0814 136.247 29.3427 136.06 28.7177 135.685C28.0927 135.31 27.6079 134.785 27.2632 134.111C26.9223 133.437 26.7518 132.649 26.7518 131.747C26.7518 130.846 26.9223 130.056 27.2632 129.378C27.6079 128.7 28.0927 128.173 28.7177 127.798C29.3427 127.423 30.0814 127.236 30.9336 127.236C31.7859 127.236 32.5245 127.423 33.1495 127.798C33.7745 128.173 34.2575 128.7 34.5984 129.378C34.9431 130.056 35.1155 130.846 35.1155 131.747C35.1155 132.649 34.9431 133.437 34.5984 134.111C34.2575 134.785 33.7745 135.31 33.1495 135.685C32.5245 136.06 31.7859 136.247 30.9336 136.247ZM30.945 134.599C31.4071 134.599 31.7935 134.472 32.1041 134.219C32.4147 133.961 32.6458 133.616 32.7973 133.185C32.9526 132.753 33.0302 132.272 33.0302 131.741C33.0302 131.207 32.9526 130.724 32.7973 130.293C32.6458 129.857 32.4147 129.51 32.1041 129.253C31.7935 128.995 31.4071 128.866 30.945 128.866C30.4715 128.866 30.0776 128.995 29.7632 129.253C29.4526 129.51 29.2196 129.857 29.0643 130.293C28.9128 130.724 28.837 131.207 28.837 131.741C28.837 132.272 28.9128 132.753 29.0643 133.185C29.2196 133.616 29.4526 133.961 29.7632 134.219C30.0776 134.472 30.4715 134.599 30.945 134.599ZM47.8847 127.639C47.8317 127.143 47.6082 126.757 47.2143 126.48C46.8241 126.204 46.3165 126.065 45.6915 126.065C45.2521 126.065 44.8752 126.132 44.5609 126.264C44.2465 126.397 44.0059 126.577 43.8393 126.804C43.6726 127.031 43.5874 127.291 43.5836 127.582C43.5836 127.825 43.6385 128.035 43.7484 128.213C43.862 128.391 44.0154 128.543 44.2086 128.668C44.4018 128.789 44.6158 128.891 44.8506 128.974C45.0855 129.058 45.3222 129.128 45.5609 129.185L46.6518 129.457C47.0912 129.56 47.5135 129.698 47.9188 129.872C48.3279 130.046 48.6934 130.266 49.0154 130.531C49.3412 130.796 49.5987 131.116 49.7881 131.491C49.9775 131.866 50.0722 132.306 50.0722 132.81C50.0722 133.491 49.898 134.092 49.5495 134.611C49.201 135.126 48.6972 135.529 48.0381 135.821C47.3828 136.109 46.5893 136.253 45.6574 136.253C44.7521 136.253 43.9662 136.113 43.2995 135.832C42.6366 135.552 42.1177 135.143 41.7427 134.605C41.3715 134.067 41.1707 133.412 41.1404 132.639H43.2143C43.2446 133.044 43.3696 133.382 43.5893 133.651C43.809 133.919 44.0949 134.12 44.4472 134.253C44.8033 134.385 45.201 134.452 45.6404 134.452C46.0987 134.452 46.5002 134.383 46.8449 134.247C47.1934 134.107 47.4662 133.914 47.6631 133.668C47.8601 133.418 47.9605 133.126 47.9643 132.793C47.9605 132.49 47.8715 132.24 47.6972 132.043C47.523 131.842 47.2787 131.675 46.9643 131.543C46.6537 131.406 46.29 131.285 45.8734 131.179L44.5495 130.838C43.5912 130.592 42.8336 130.219 42.2768 129.719C41.7237 129.215 41.4472 128.546 41.4472 127.713C41.4472 127.027 41.6328 126.427 42.004 125.912C42.379 125.397 42.8885 124.997 43.5324 124.713C44.1764 124.425 44.9055 124.281 45.7199 124.281C46.5457 124.281 47.2692 124.425 47.8904 124.713C48.5154 124.997 49.0059 125.393 49.362 125.901C49.718 126.404 49.9018 126.984 49.9131 127.639H47.8847ZM52.1806 136.077V127.349H54.2374V136.077H52.1806ZM53.2147 126.111C52.8889 126.111 52.6086 126.003 52.3737 125.787C52.1389 125.567 52.0215 125.304 52.0215 124.997C52.0215 124.687 52.1389 124.423 52.3737 124.207C52.6086 123.988 52.8889 123.878 53.2147 123.878C53.5442 123.878 53.8245 123.988 54.0556 124.207C54.2904 124.423 54.4078 124.687 54.4078 124.997C54.4078 125.304 54.2904 125.567 54.0556 125.787C53.8245 126.003 53.5442 126.111 53.2147 126.111ZM63.5702 129.656L61.6952 129.861C61.6421 129.671 61.5493 129.493 61.4168 129.327C61.288 129.16 61.1137 129.026 60.894 128.923C60.6743 128.821 60.4054 128.77 60.0872 128.77C59.6592 128.77 59.2993 128.863 59.0077 129.048C58.7198 129.234 58.5777 129.474 58.5815 129.77C58.5777 130.024 58.6705 130.23 58.8599 130.389C59.0531 130.548 59.3713 130.679 59.8145 130.781L61.3031 131.099C62.1289 131.277 62.7425 131.56 63.144 131.946C63.5493 132.332 63.7539 132.838 63.7577 133.463C63.7539 134.012 63.5929 134.497 63.2747 134.918C62.9603 135.334 62.5228 135.66 61.9622 135.895C61.4016 136.13 60.7577 136.247 60.0304 136.247C58.9622 136.247 58.1024 136.024 57.4509 135.577C56.7993 135.126 56.4111 134.499 56.2861 133.696L58.2918 133.503C58.3827 133.897 58.5759 134.194 58.8713 134.395C59.1668 134.596 59.5512 134.696 60.0247 134.696C60.5134 134.696 60.9054 134.596 61.2009 134.395C61.5001 134.194 61.6497 133.946 61.6497 133.651C61.6497 133.401 61.5531 133.194 61.3599 133.031C61.1705 132.868 60.8751 132.743 60.4736 132.656L58.9849 132.344C58.1478 132.169 57.5285 131.876 57.127 131.463C56.7255 131.046 56.5266 130.52 56.5304 129.883C56.5266 129.346 56.6724 128.88 56.9679 128.486C57.2671 128.088 57.6819 127.781 58.2122 127.565C58.7463 127.346 59.3618 127.236 60.0588 127.236C61.0815 127.236 61.8865 127.454 62.4736 127.889C63.0645 128.325 63.43 128.914 63.5702 129.656ZM70.1316 127.349V128.94H65.1146V127.349H70.1316ZM66.3532 125.258H68.4101V133.452C68.4101 133.728 68.4517 133.94 68.5351 134.088C68.6222 134.232 68.7358 134.33 68.876 134.383C69.0161 134.437 69.1714 134.463 69.3419 134.463C69.4707 134.463 69.5881 134.454 69.6941 134.435C69.804 134.416 69.8873 134.399 69.9441 134.383L70.2907 135.991C70.1809 136.029 70.0237 136.071 69.8191 136.116C69.6184 136.162 69.3722 136.188 69.0805 136.196C68.5654 136.211 68.1013 136.133 67.6885 135.963C67.2756 135.789 66.9479 135.52 66.7055 135.156C66.4669 134.793 66.3494 134.338 66.3532 133.793V125.258ZM75.9417 136.247C75.0667 136.247 74.311 136.065 73.6747 135.702C73.0421 135.334 72.5553 134.815 72.2144 134.145C71.8735 133.471 71.7031 132.677 71.7031 131.764C71.7031 130.866 71.8735 130.079 72.2144 129.401C72.5591 128.719 73.0402 128.188 73.6576 127.81C74.275 127.427 75.0004 127.236 75.8338 127.236C76.3716 127.236 76.8792 127.323 77.3565 127.497C77.8375 127.668 78.2618 127.933 78.6292 128.293C79.0004 128.652 79.2921 129.111 79.5042 129.668C79.7163 130.221 79.8224 130.88 79.8224 131.645V132.276H72.669V130.889H77.8508C77.847 130.495 77.7618 130.145 77.5951 129.838C77.4284 129.527 77.1955 129.283 76.8963 129.105C76.6008 128.927 76.2561 128.838 75.8622 128.838C75.4417 128.838 75.0724 128.94 74.7542 129.145C74.436 129.346 74.1879 129.611 74.0099 129.94C73.8356 130.266 73.7466 130.624 73.7428 131.014V132.224C73.7428 132.732 73.8356 133.168 74.0213 133.531C74.2069 133.891 74.4663 134.168 74.7997 134.361C75.133 134.55 75.5231 134.645 75.9701 134.645C76.2694 134.645 76.5402 134.603 76.7826 134.52C77.025 134.433 77.2353 134.306 77.4133 134.139C77.5913 133.972 77.7258 133.766 77.8167 133.52L79.7372 133.736C79.6159 134.243 79.3849 134.687 79.044 135.065C78.7069 135.44 78.275 135.732 77.7485 135.94C77.222 136.145 76.6197 136.247 75.9417 136.247ZM81.8824 136.077V127.349H83.8483V128.832H83.9506C84.1324 128.332 84.4336 127.942 84.854 127.662C85.2745 127.378 85.7764 127.236 86.3597 127.236C86.9506 127.236 87.4487 127.38 87.854 127.668C88.2631 127.952 88.551 128.34 88.7177 128.832H88.8086C89.0018 128.347 89.3275 127.961 89.7859 127.673C90.248 127.382 90.7953 127.236 91.4279 127.236C92.2309 127.236 92.8862 127.49 93.3938 127.997C93.9014 128.505 94.1552 129.245 94.1552 130.219V136.077H92.0927V130.537C92.0927 129.995 91.9487 129.599 91.6609 129.349C91.373 129.096 91.0207 128.969 90.604 128.969C90.1078 128.969 89.7196 129.124 89.4393 129.435C89.1627 129.741 89.0245 130.141 89.0245 130.633V136.077H87.0074V130.452C87.0074 130.001 86.8711 129.641 86.5984 129.372C86.3294 129.103 85.9771 128.969 85.5415 128.969C85.2461 128.969 84.9771 129.044 84.7347 129.196C84.4923 129.344 84.2991 129.554 84.1552 129.827C84.0112 130.096 83.9393 130.41 83.9393 130.77V136.077H81.8824ZM99.0732 136.253C98.5201 136.253 98.022 136.154 97.5789 135.957C97.1395 135.757 96.791 135.461 96.5334 135.071C96.2796 134.681 96.1527 134.2 96.1527 133.628C96.1527 133.135 96.2436 132.728 96.4255 132.406C96.6073 132.084 96.8554 131.827 97.1698 131.633C97.4842 131.44 97.8383 131.294 98.2323 131.196C98.63 131.094 99.041 131.02 99.4652 130.974C99.9766 130.921 100.391 130.874 100.71 130.832C101.028 130.787 101.259 130.719 101.403 130.628C101.55 130.533 101.624 130.387 101.624 130.19V130.156C101.624 129.728 101.497 129.397 101.244 129.162C100.99 128.927 100.624 128.81 100.147 128.81C99.6433 128.81 99.2436 128.919 98.9482 129.139C98.6565 129.359 98.4595 129.618 98.3573 129.918L96.4368 129.645C96.5883 129.115 96.8383 128.671 97.1868 128.315C97.5353 127.955 97.9614 127.687 98.4652 127.508C98.969 127.327 99.5258 127.236 100.136 127.236C100.556 127.236 100.975 127.285 101.391 127.383C101.808 127.482 102.189 127.645 102.533 127.872C102.878 128.096 103.155 128.401 103.363 128.787C103.575 129.173 103.681 129.656 103.681 130.236V136.077H101.704V134.878H101.636C101.511 135.12 101.335 135.347 101.107 135.56C100.884 135.768 100.602 135.937 100.261 136.065C99.9236 136.19 99.5277 136.253 99.0732 136.253ZM99.6073 134.741C100.02 134.741 100.378 134.66 100.681 134.497C100.984 134.33 101.217 134.111 101.38 133.838C101.547 133.565 101.63 133.268 101.63 132.946V131.918C101.566 131.971 101.456 132.02 101.3 132.065C101.149 132.111 100.978 132.151 100.789 132.185C100.6 132.219 100.412 132.249 100.227 132.276C100.041 132.302 99.88 132.325 99.7436 132.344C99.4368 132.385 99.1622 132.454 98.9198 132.548C98.6773 132.643 98.4861 132.776 98.3459 132.946C98.2058 133.113 98.1357 133.329 98.1357 133.594C98.1357 133.972 98.2739 134.258 98.5505 134.452C98.827 134.645 99.1792 134.741 99.6073 134.741ZM20.9205 160.247C20.0455 160.247 19.2898 160.065 18.6534 159.702C18.0208 159.334 17.5341 158.815 17.1932 158.145C16.8523 157.471 16.6818 156.677 16.6818 155.764C16.6818 154.866 16.8523 154.079 17.1932 153.401C17.5379 152.719 18.0189 152.188 18.6364 151.81C19.2538 151.427 19.9792 151.236 20.8125 151.236C21.3504 151.236 21.858 151.323 22.3352 151.497C22.8163 151.668 23.2405 151.933 23.608 152.293C23.9792 152.652 24.2708 153.111 24.483 153.668C24.6951 154.221 24.8011 154.88 24.8011 155.645V156.276H17.6477V154.889H22.8295C22.8258 154.495 22.7405 154.145 22.5739 153.838C22.4072 153.527 22.1742 153.283 21.875 153.105C21.5795 152.927 21.2348 152.838 20.8409 152.838C20.4205 152.838 20.0511 152.94 19.733 153.145C19.4148 153.346 19.1667 153.611 18.9886 153.94C18.8144 154.266 18.7254 154.624 18.7216 155.014V156.224C18.7216 156.732 18.8144 157.168 19 157.531C19.1856 157.891 19.4451 158.168 19.7784 158.361C20.1117 158.55 20.5019 158.645 20.9489 158.645C21.2481 158.645 21.5189 158.603 21.7614 158.52C22.0038 158.433 22.214 158.306 22.392 158.139C22.5701 157.972 22.7045 157.766 22.7955 157.52L24.7159 157.736C24.5947 158.243 24.3636 158.687 24.0227 159.065C23.6856 159.44 23.2538 159.732 22.7273 159.94C22.2008 160.145 21.5985 160.247 20.9205 160.247ZM32.151 154.383V156.077H26.9123V154.383H32.151ZM34.7252 148.44H37.3048L40.7593 156.872H40.8957L44.3502 148.44H46.9298V160.077H44.907V152.082H44.7991L41.5832 160.043H40.0718L36.8559 152.065H36.748V160.077H34.7252V148.44ZM49.5452 160.077V148.44H57.1134V150.207H51.6532V153.366H56.7214V155.133H51.6532V158.31H57.1589V160.077H49.5452ZM69.5442 152.366H67.4192C67.3586 152.018 67.2469 151.709 67.084 151.44C66.9211 151.168 66.7184 150.937 66.476 150.747C66.2336 150.558 65.9571 150.416 65.6465 150.321C65.3397 150.222 65.0082 150.173 64.6522 150.173C64.0196 150.173 63.459 150.332 62.9703 150.651C62.4817 150.965 62.0991 151.427 61.8226 152.037C61.5461 152.643 61.4078 153.383 61.4078 154.258C61.4078 155.149 61.5461 155.899 61.8226 156.508C62.1029 157.115 62.4855 157.573 62.9703 157.883C63.459 158.19 64.0177 158.344 64.6465 158.344C64.995 158.344 65.3207 158.298 65.6237 158.207C65.9306 158.113 66.2052 157.974 66.4476 157.793C66.6938 157.611 66.9003 157.387 67.0669 157.122C67.2374 156.857 67.3548 156.554 67.4192 156.213L69.5442 156.224C69.4647 156.777 69.2923 157.296 69.0272 157.781C68.7658 158.266 68.423 158.694 67.9987 159.065C67.5745 159.433 67.0783 159.721 66.5101 159.929C65.9419 160.133 65.3112 160.236 64.6181 160.236C63.5953 160.236 62.6825 159.999 61.8794 159.526C61.0764 159.052 60.4438 158.368 59.9817 157.474C59.5196 156.58 59.2885 155.508 59.2885 154.258C59.2885 153.005 59.5215 151.933 59.9874 151.043C60.4533 150.149 61.0878 149.465 61.8908 148.991C62.6938 148.518 63.6029 148.281 64.6181 148.281C65.2658 148.281 65.8681 148.372 66.4249 148.554C66.9817 148.736 67.4779 149.003 67.9135 149.355C68.3491 149.704 68.7071 150.132 68.9874 150.639C69.2715 151.143 69.4571 151.719 69.5442 152.366Z" fill="white"/>
<g clip-path="url(#clip0_110_4604)">
<path d="M150.287 17.6021H235.713C241.609 17.6021 246.398 22.3904 246.398 28.2866V159.866C246.398 165.763 241.609 170.551 235.713 170.551H150.287C144.391 170.551 139.602 165.763 139.602 159.866V28.2866C139.602 22.3904 144.391 17.6021 150.287 17.6021Z" fill="white"/>
<path d="M235.713 19.2045C240.73 19.2045 244.796 23.2695 244.796 28.2868V159.862C244.796 164.879 240.73 168.944 235.713 168.944H150.287C145.27 168.944 141.204 164.879 141.204 159.862V28.2868C141.204 23.2695 145.27 19.2045 150.287 19.2045H235.713ZM235.713 16H150.287C143.512 16 138 21.5117 138 28.2868V159.867C138 166.642 143.512 172.153 150.287 172.153H235.713C242.488 172.153 248 166.642 248 159.867V28.2868C248 21.5117 242.488 16 235.713 16Z" fill="#E6E6E6"/>
<path d="M235.713 19.2046H150.287C145.271 19.2046 141.204 23.2709 141.204 28.2869V159.867C141.204 164.883 145.271 168.949 150.287 168.949H235.713C240.729 168.949 244.796 164.883 244.796 159.867V28.2869C244.796 23.2709 240.729 19.2046 235.713 19.2046Z" fill="white" stroke="#0063B5" stroke-width="3" stroke-miterlimit="10"/>
<path d="M174.828 36.7605L164.986 31.8943L174.828 26.9961L184.391 31.876L174.828 36.7605Z" fill="#F9C700"/>
<path d="M174.686 37.8912V39.8733L166.927 36.0234V38.0239L170.809 39.8733V41.7777L166.927 39.855V41.8143L174.686 45.6048V47.4542L164.986 42.6475V33.1943L174.686 37.8912Z" fill="#36A059"/>
<path d="M174.686 37.8912V39.8733L182.45 36.0234V41.8143L174.686 45.6048V47.4542L184.391 42.6475V33.1943L174.686 37.8912Z" fill="#57A759"/>
<path d="M197.662 38.0195H194.728V39.0862H197.662V38.0195Z" fill="#0063B5"/>
<path d="M214.248 34.4623V33.2217H208.837V34.2471V34.4623V37.0625V38.2618V41.2557V42.4551H214.248V41.2557H210.32V38.2618H213.314V37.0625H210.32V34.4623H214.248Z" fill="#0063B5"/>
<path d="M190.182 41.4756C189.102 41.4618 189.006 40.0152 189.01 39.1912H192.883L192.892 38.738C192.892 38.6739 192.92 37.1175 191.977 36.1516C191.496 35.6618 190.869 35.4146 190.104 35.4146C188.031 35.4146 187.472 37.5844 187.468 38.7289V39.2233C187.568 41.2009 188.369 42.5101 190.182 42.5651C191.771 42.5651 192.654 41.8693 192.897 40.2853H191.574C191.56 40.3448 191.414 41.4939 190.182 41.4801V41.4756ZM190.104 36.4949C191.459 36.4949 191.313 37.763 191.313 38.2619H189.056C189.056 37.5753 189.189 36.4949 190.104 36.4949Z" fill="#0063B5"/>
<path d="M199.141 42.4551V33.2217H201.728L203.289 40.0289L205.12 33.2217H207.523V42.4551H206.035L206.012 34.7461L203.843 42.4551H202.625L200.409 34.7461L200.437 42.4551H199.141Z" fill="#0063B5"/>
<path d="M220.373 39.4935H219.622C219.622 39.4935 219.686 40.4045 219.196 40.931C218.94 41.2102 218.592 41.4437 218.07 41.4345C216.628 41.4071 216.285 40.1939 216.262 39.3745C216.258 39.2051 216.262 39.0358 216.262 38.871C216.262 38.816 216.262 38.7703 216.262 38.7153C216.262 38.6741 216.262 38.6283 216.262 38.5871C216.262 38.5734 216.262 38.5551 216.262 38.5414C216.262 38.3033 216.262 38.079 216.262 37.8593C216.262 37.6395 216.262 37.4152 216.262 37.1772C216.262 37.1634 216.262 37.1451 216.262 37.1314C216.262 37.0902 216.262 37.0444 216.262 37.0032C216.262 36.9529 216.262 36.9025 216.262 36.8476C216.262 36.6782 216.262 36.5134 216.262 36.344C216.285 35.5246 216.633 34.3115 218.07 34.284C218.592 34.2748 218.94 34.5083 219.196 34.7876C219.686 35.314 219.622 36.2204 219.622 36.2296H220.373H221.009C221.023 36.0785 221.115 34.8242 220.226 33.8537C219.7 33.2769 218.963 33.0297 218.038 32.9839C216.367 32.9015 215.095 34.1238 214.802 35.8588C214.774 36.0281 214.738 36.5226 214.719 36.8705H214.71C214.71 36.9758 214.71 37.0719 214.71 37.168C214.71 37.3923 214.71 37.6212 214.71 37.8547C214.71 38.0882 214.71 38.317 214.71 38.5414C214.71 38.6421 214.71 38.7382 214.71 38.8389H214.719C214.738 39.1868 214.774 39.6812 214.802 39.8506C215.095 41.5856 216.367 42.8079 218.038 42.7255C218.963 42.6797 219.7 42.4325 220.226 41.8557C221.115 40.8852 221.023 39.6309 221.009 39.4798H220.373V39.4935Z" fill="#0063B5"/>
<path d="M179.763 156.856V157.208C179.763 158.243 179.548 160.152 177.168 160.152C175.08 160.152 174.641 159.103 174.641 157.725V153.161C174.641 151.765 175.428 150.84 177.2 150.84C179.31 150.84 179.713 152.424 179.713 153.679V154.086H177.973V153.061C177.973 152.461 177.799 152.118 177.195 152.118C176.591 152.118 176.412 152.447 176.412 153.065V157.849C176.412 158.439 176.559 158.897 177.218 158.897C177.877 158.897 178.01 158.041 178.01 157.368V156.86H179.763V156.856Z" fill="#0063B5"/>
<path d="M188.168 157.354V157.913C188.168 158.586 188.42 158.961 189.079 158.961C189.738 158.961 189.931 158.444 189.931 157.858C189.931 156.887 189.67 156.585 188.461 155.816C187.248 155.047 186.603 154.557 186.603 153.216C186.603 152.021 187.051 150.822 189.084 150.822C191.162 150.822 191.482 152.012 191.482 152.996V153.481H189.761V153.037C189.761 152.406 189.628 152.026 189.052 152.026C188.475 152.026 188.338 152.419 188.338 153.019C188.338 153.66 188.489 153.971 189.477 154.553C191.162 155.555 191.679 156.137 191.679 157.647C191.679 158.929 191.121 160.147 189.02 160.147C186.918 160.147 186.429 159.08 186.429 157.89V157.354H188.164H188.168Z" fill="#0063B5"/>
<path d="M193.794 157.354V157.913C193.794 158.586 194.046 158.961 194.705 158.961C195.364 158.961 195.557 158.444 195.557 157.858C195.557 156.887 195.296 156.585 194.087 155.816C192.874 155.047 192.229 154.557 192.229 153.216C192.229 152.021 192.677 150.822 194.71 150.822C196.788 150.822 197.109 152.012 197.109 152.996V153.481H195.387V153.037C195.387 152.406 195.255 152.026 194.678 152.026C194.101 152.026 193.964 152.419 193.964 153.019C193.964 153.66 194.115 153.971 195.104 154.553C196.788 155.555 197.305 156.137 197.305 157.647C197.305 158.929 196.747 160.147 194.646 160.147C192.545 160.147 192.055 159.08 192.055 157.89V157.354H193.79H193.794Z" fill="#0063B5"/>
<path d="M202.208 156.338H199.814V158.732H202.666V160.014H198.537V150.968H202.666V152.264H199.814V155.056H202.208V156.338Z" fill="#0063B5"/>
<path d="M209.011 157.954C209.011 159.163 209.272 160.124 207.267 160.124C207.019 160.124 206.658 160.097 206.383 160.06V158.874C206.525 158.888 206.672 158.902 206.91 158.902C207.518 158.902 207.738 158.774 207.738 158.124V150.973H209.015V157.959L209.011 157.954Z" fill="#0063B5"/>
<path d="M211.657 158.513L211.359 160.019H209.707L211.629 150.973H213.85L215.855 160.019H214.298L213.978 158.513H211.657ZM214.724 149L213.493 150.373H212.325L213.502 149H214.724ZM213.85 157.231C213.593 155.693 212.888 153.321 212.76 152.296H212.696C212.627 153.331 211.854 155.89 211.625 157.231H213.845H213.85Z" fill="#0063B5"/>
<path d="M216.898 158.105L216.468 152.813V150.968H218.24V152.799L217.718 158.105H216.898ZM216.692 160.014V158.645H217.915V160.014H216.692Z" fill="#0063B5"/>
<path d="M184.813 156.338H182.418V158.732H185.27V160.014H181.141V150.968H185.27V152.264H182.418V155.056H184.813V156.338Z" fill="#0063B5"/>
<path d="M169.715 158.513L169.417 160.019H167.765L169.688 150.973H171.908L173.913 160.019H172.356L172.036 158.513H169.715ZM171.908 157.231C171.651 155.693 170.946 153.322 170.818 152.296H170.754C170.686 153.331 169.912 155.89 169.683 157.231H171.903H171.908Z" fill="#0063B5"/>
<path d="M156.69 80.5171H154V83.2067V85.8964H156.69V83.2067V80.5171Z" fill="black"/>
<path d="M156.69 88.5864H154V91.2761H156.69V88.5864Z" fill="black"/>
<path d="M156.69 93.9653H154V96.655V99.3446H156.69V96.655V93.9653Z" fill="black"/>
<path d="M154 104.724V107.414V110.104V112.793H156.69V110.104H159.379H162.069H164.759V107.414H162.069V104.724H159.379V107.414H156.69V104.724V102.035H154V104.724Z" fill="black"/>
<path d="M159.379 99.3447H156.69V102.034H159.379V99.3447Z" fill="black"/>
<path d="M159.379 112.793H156.69V115.483H159.379V112.793Z" fill="black"/>
<path d="M164.759 80.5171H162.069H159.379V83.2067V85.8964H156.69V88.5861H159.379H162.069V85.8964H164.759H167.448V83.2067H164.759V80.5171Z" fill="black"/>
<path d="M164.759 102.035H162.069V104.724H164.759V102.035Z" fill="black"/>
<path d="M167.448 112.793H164.759V115.483H167.448V112.793Z" fill="black"/>
<path d="M172.828 110.103V107.414H170.138H167.448V110.103V112.793H170.138V110.103H172.828Z" fill="black"/>
<path d="M175.517 104.724V102.034H178.207V104.724V107.414H180.897H183.586V104.724H180.897V102.034V99.3448V96.6552H178.207V93.9655H180.897H183.586V91.2759H186.276V88.5862H188.965V85.8965H191.655H194.345V83.2069V80.5172H191.655V83.2069H188.965H186.276V85.8965H183.586V88.5862H180.897V91.2759H178.207V88.5862V85.8965H180.897H183.586V83.2069H180.897V80.5172V77.8276H178.207V75.1379H180.897V72.4483H183.586V69.7586V67.069V64.3793H180.897V61.6897H183.586V59H180.897H178.207V61.6897H175.517V64.3793H178.207V67.069H180.897V69.7586H178.207V72.4483H175.517V75.1379V77.8276V80.5172H172.828H170.138H167.448V83.2069H170.138H172.828V85.8965H170.138V88.5862H172.828V91.2759H175.517V93.9655V96.6552H172.828H170.138H167.448H164.759V93.9655H167.448H170.138H172.828V91.2759H170.138V88.5862H167.448H164.759V91.2759H162.069H159.379V93.9655V96.6552V99.3448H162.069H164.759H167.448H170.138H172.828V102.034H170.138H167.448V104.724H170.138H172.828V107.414H175.517V104.724Z" fill="black"/>
<path d="M175.517 110.104H172.828V112.793H170.138V115.483H172.828H175.517V112.793V110.104Z" fill="black"/>
<path d="M178.207 67.0688H175.517V69.7585H178.207V67.0688Z" fill="black"/>
<path d="M178.207 128.931H180.897V126.241H178.207H175.517V128.931V131.621H178.207V128.931Z" fill="black"/>
<path d="M175.517 134.311V137H178.207H180.897V134.311H178.207H175.517Z" fill="black"/>
<path d="M183.586 75.1377H180.897V77.8274H183.586V75.1377Z" fill="black"/>
<path d="M186.276 64.3793V67.069H188.965V64.3793H191.655H194.345H197.034V61.6897H194.345H191.655V59H188.965H186.276V61.6897H183.586V64.3793H186.276Z" fill="black"/>
<path d="M186.276 72.4482H183.586V75.1379H186.276V72.4482Z" fill="black"/>
<path d="M186.276 77.8276H183.586V80.5173H186.276V77.8276Z" fill="black"/>
<path d="M186.276 102.035H183.586V104.724H186.276V102.035Z" fill="black"/>
<path d="M186.276 107.414H183.586V110.103H186.276V107.414Z" fill="black"/>
<path d="M183.586 131.621H180.897V134.31H183.586H186.276V131.621V128.931H183.586V131.621Z" fill="black"/>
<path d="M188.966 75.1377H186.276V77.8274H188.966V75.1377Z" fill="black"/>
<path d="M188.966 99.3447H186.276V102.034H188.966V99.3447Z" fill="black"/>
<path d="M186.276 118.172H183.586V115.483V112.793V110.104H180.897V112.793H178.207V115.483H180.897V118.172H178.207V115.483H175.517V118.172V120.862V123.552H178.207V120.862H180.897H183.586H186.276H188.965V118.172H186.276Z" fill="black"/>
<path d="M191.655 77.8276H188.966V80.5173H191.655V77.8276Z" fill="black"/>
<path d="M191.655 126.241H188.966V128.931H191.655V126.241Z" fill="black"/>
<path d="M194.345 75.1377H191.655V77.8274H194.345V75.1377Z" fill="black"/>
<path d="M194.345 69.7585V67.0688H191.655V69.7585V72.4482H194.345H197.034V69.7585H194.345Z" fill="black"/>
<path d="M197.035 77.8276H194.345V80.5173H197.035V77.8276Z" fill="black"/>
<path d="M194.345 91.2758H191.655V93.9654H188.966V96.6551H191.655H194.345H197.035H199.724V93.9654H197.035V91.2758V88.5861H199.724V85.8965H197.035H194.345V88.5861V91.2758Z" fill="black"/>
<path d="M199.724 64.3794H197.034V67.069H199.724V64.3794Z" fill="black"/>
<path d="M199.724 75.1378H202.414V77.8275H205.103V75.1378V72.4482H207.793H210.483V69.7585H207.793H205.103V67.0688H202.414V69.7585H199.724V72.4482H197.034V75.1378V77.8275H199.724V75.1378Z" fill="black"/>
<path d="M202.414 99.3447H199.724V102.034H202.414V99.3447Z" fill="black"/>
<path d="M199.724 104.724H197.035V102.034V99.3447H194.345V102.034V104.724H191.655V102.034H188.966V104.724H186.276V107.414H188.966V110.103H186.276V112.793H188.966V115.483V118.172H191.655V115.483H194.345V118.172H191.655V120.862H188.966V123.552H191.655H194.345V126.241H197.035V123.552V120.862V118.172V115.483H199.724V112.793V110.103H197.035V112.793H194.345H191.655V110.103H194.345H197.035V107.414H199.724H202.414V104.724H199.724Z" fill="black"/>
<path d="M199.724 120.862V123.552H202.414V120.862V118.173H205.103V115.483H202.414H199.724V118.173V120.862Z" fill="black"/>
<path d="M205.103 59H202.414V61.6897H205.103V59Z" fill="black"/>
<path d="M202.414 80.517H199.724V83.2067H202.414V85.8963H205.103V83.2067H207.793V80.517H210.483V77.8274V75.1377H207.793V77.8274H205.103V80.517H202.414Z" fill="black"/>
<path d="M205.103 96.6553H202.414V99.3449H205.103V96.6553Z" fill="black"/>
<path d="M210.483 59H207.793V61.6897H210.483V59Z" fill="black"/>
<path d="M210.483 64.3794H207.793V67.069H210.483V64.3794Z" fill="black"/>
<path d="M207.793 118.172V123.552H205.103V126.241H202.414V128.931H207.793V126.241H213.172V131.621H215.862V137H218.552V134.31H223.931V128.931H232V123.552H229.31V126.241H226.621V123.552H229.31V120.862H232V112.793H226.621V115.483H229.31V118.172H226.621V120.862H223.931V123.552H221.241V120.862H223.931V118.172H221.241V115.483H223.931V112.793H226.621V110.104H221.241V112.793H205.103V115.483H207.793V118.172ZM221.241 131.621H218.552V128.931H215.862V126.241H218.552V128.931H221.241V131.621ZM213.172 115.483H218.552V123.552H210.483V115.483H213.172Z" fill="black"/>
<path d="M210.483 128.931H207.793V131.621H210.483V128.931Z" fill="black"/>
<path d="M213.172 83.2067V85.8964V88.5861H210.483V85.8964V83.2067H207.793V85.8964H205.103V88.5861H202.414V91.2757V93.9654H205.103H207.793V91.2757H210.483V93.9654H207.793V96.655V99.3447H210.483V96.655H213.172H215.862V93.9654H213.172V91.2757H215.862V93.9654H218.552V91.2757V88.5861H215.862V85.8964H218.552V83.2067V80.5171H215.862H213.172H210.483V83.2067H213.172Z" fill="black"/>
<path d="M210.483 134.31H207.793V131.621H205.104H202.414H199.724H197.035H194.345H191.655H188.966V134.31H191.655V137H194.345H197.035H199.724H202.414H205.104H207.793H210.483H213.172V134.31V131.621H210.483V134.31Z" fill="black"/>
<path d="M215.862 118.172H213.172V120.862H215.862V118.172Z" fill="black"/>
<path d="M218.552 99.3447H215.862V102.034H213.172H210.483H207.793H205.103V104.724V107.414H202.414V110.103H205.103H207.793V107.414V104.724H210.483V107.414H213.172V104.724H215.862H218.552V102.034V99.3447Z" fill="black"/>
<path d="M221.241 93.9653H218.552V96.655H221.241V93.9653Z" fill="black"/>
<path d="M223.931 80.5171H221.241V83.2067V85.8964H223.931V83.2067V80.5171Z" fill="black"/>
<path d="M223.931 96.6553H221.241V99.3449H223.931V96.6553Z" fill="black"/>
<path d="M226.621 85.8965H223.931V88.5861V91.2758H226.621V88.5861V85.8965Z" fill="black"/>
<path d="M226.621 115.483H223.931V118.173H226.621V115.483Z" fill="black"/>
<path d="M226.621 134.311H223.931V137H226.621V134.311Z" fill="black"/>
<path d="M229.31 80.5171H226.621V83.2067V85.8964H229.31V88.5861V91.2757H226.621V93.9654H229.31V96.655H226.621V99.3447V102.034V104.724H223.931H221.241H218.552V107.414H221.241H223.931H226.621H229.31H232V104.724H229.31V102.034V99.3447H232V96.655V93.9654V91.2757V88.5861V85.8964V83.2067H229.31V80.5171Z" fill="black"/>
<path d="M232 134.31V131.621H229.31H226.621V134.31H229.31H232Z" fill="black"/>
<path d="M159.379 77.8276H172.828V59H154V77.8276H159.379ZM156.69 72.4483V61.6897H170.138V75.1379H156.69V72.4483Z" fill="black"/>
<path d="M164.759 72.4484H167.448V69.7587V67.069V64.3794H164.759H162.069H159.379V67.069V69.7587V72.4484H162.069H164.759Z" fill="black"/>
<path d="M229.31 59H213.172V77.8276H232V59H229.31ZM229.31 64.3793V75.1379H215.862V61.6897H229.31V64.3793Z" fill="black"/>
<path d="M221.241 64.3794H218.552V67.069V69.7587V72.4484H221.241H223.931H226.621V69.7587V67.069V64.3794H223.931H221.241Z" fill="black"/>
<path d="M167.448 118.172H154V137H172.828V118.172H167.448ZM170.138 123.552V134.31H156.69V120.862H170.138V123.552Z" fill="black"/>
<path d="M162.069 123.552H159.379V126.241V128.931V131.621H162.069H164.759H167.448V128.931V126.241V123.552H164.759H162.069Z" fill="black"/>
</g>
<defs>
<clipPath id="clip0_110_4604">
<rect width="110" height="156.153" fill="white" transform="translate(138 16)"/>
</clipPath>
</defs>
</svg>
